<svg width="24" height="24" viewBox="0 0 24 24" fill="none" xmlns="http://www.w3.org/2000/svg">
<path d="M5.06449 16.9999H2.6258C2.19461 16.9999 1.78108 16.8313 1.47618 16.5313C1.17129 16.2312 1 15.8243 1 15.3999V9.79994C1 9.3756 1.17129 8.96864 1.47618 8.66858C1.78108 8.36852 2.19461 8.19995 2.6258 8.19995H5.06449M10.7548 6.59996V3.39998C10.7548 2.76347 10.4979 2.15302 10.0405 1.70294C9.58316 1.25285 8.96287 1 8.31609 1L5.06449 8.19995V16.9999H14.234C14.6261 17.0043 15.0066 16.869 15.3053 16.6191C15.6041 16.3692 15.801 16.0214 15.8598 15.6399L16.9816 8.43995C17.017 8.21064 17.0012 7.9765 16.9355 7.75376C16.8698 7.53102 16.7557 7.325 16.601 7.14997C16.4464 6.97495 16.2549 6.83511 16.0399 6.74014C15.8249 6.64517 15.5915 6.59734 15.3558 6.59996H10.7548Z" stroke="inherit" stroke-width="2" stroke-linecap="round" stroke-linejoin="round"/>
<path d="M16.7548 11.6V8.39998C16.7548 7.76347 16.4979 7.15302 16.0405 6.70294C15.5832 6.25285 14.9629 6 14.3161 6L11.0645 13.2V21.9999H20.234C20.6261 22.0043 21.0066 21.869 21.3053 21.6191C21.6041 21.3692 21.801 21.0214 21.8598 20.6399L22.9816 13.44C23.017 13.2106 23.0012 12.9765 22.9355 12.7538C22.8698 12.531 22.7557 12.325 22.601 12.15C22.4464 11.9749 22.2549 11.8351 22.0399 11.7401C21.8249 11.6452 21.5915 11.5973 21.3558 11.6H16.7548ZM11.0645 21.9999H8.6258C8.19461 21.9999 7.78108 21.8313 7.47618 21.5313C7.17129 21.2312 7 20.8243 7 20.3999V14.7999C7 14.3756 7.17129 13.9686 7.47618 13.6686C7.78108 13.3685 8.19461 13.2 8.6258 13.2H11.0645" fill="inherit"/>
<path d="M11.0645 21.9999H8.6258C8.19461 21.9999 7.78108 21.8313 7.47618 21.5313C7.17129 21.2312 7 20.8243 7 20.3999V14.7999C7 14.3756 7.17129 13.9686 7.47618 13.6686C7.78108 13.3685 8.19461 13.2 8.6258 13.2H11.0645M16.7548 11.6V8.39998C16.7548 7.76347 16.4979 7.15302 16.0405 6.70294C15.5832 6.25285 14.9629 6 14.3161 6L11.0645 13.2V21.9999H20.234C20.6261 22.0043 21.0066 21.869 21.3053 21.6191C21.6041 21.3692 21.801 21.0214 21.8598 20.6399L22.9816 13.44C23.017 13.2106 23.0012 12.9765 22.9355 12.7538C22.8698 12.531 22.7557 12.325 22.601 12.15C22.4464 11.9749 22.2549 11.8351 22.0399 11.7401C21.8249 11.6452 21.5915 11.5973 21.3558 11.6H16.7548Z" stroke="inherit" stroke-width="2" stroke-linecap="round" stroke-linejoin="round"/>
</svg>
