<svg width="24" height="24" viewBox="0 0 24 24" fill="none" xmlns="http://www.w3.org/2000/svg">
<path d="M2 14C2 16.2091 3.79086 18 6 18C8.20914 18 10 16.2091 10 14C10 11.7909 8.20914 10 6 10C3.79086 10 2 11.7909 2 14Z" stroke="inherit" stroke-width="2" stroke-linecap="round" stroke-linejoin="round"/>
<path d="M14 10C14 12.2091 15.7909 14 18 14C20.2091 14 22 12.2091 22 10C22 7.79086 20.2091 6 18 6C15.7909 6 14 7.79086 14 10Z" stroke="inherit" stroke-width="2" stroke-linecap="round" stroke-linejoin="round"/>
<path d="M6 2V10" stroke="inherit" stroke-width="2" stroke-linecap="round" stroke-linejoin="round"/>
<path d="M18 2V6" stroke="inherit" stroke-width="2" stroke-linecap="round" stroke-linejoin="round"/>
<path d="M6 18L6 22" stroke="inherit" stroke-width="2" stroke-linecap="round" stroke-linejoin="round"/>
<path d="M18 14L18 22" stroke="inherit" stroke-width="2" stroke-linecap="round" stroke-linejoin="round"/>
</svg>
