<svg width="24" height="24" viewBox="0 0 24 24" fill="none" xmlns="http://www.w3.org/2000/svg">
<path d="M17.5 2.5V1.5H15.5V2.5H17.5ZM15.5 7.5V8.5H17.5V7.5H15.5ZM15.5 2.5V7.5H17.5V2.5H15.5Z" fill="inherit"/>
<path d="M14.5 2.5V1.5H12.5V2.5H14.5ZM12.5 7.5V8.5H14.5V7.5H12.5ZM12.5 2.5V7.5H14.5V2.5H12.5Z" fill="inherit"/>
<path d="M8.5 2.5V1.5H6.5V2.5H8.5ZM6.5 7.5V8.5H8.5V7.5H6.5ZM6.5 2.5V7.5H8.5V2.5H6.5Z" fill="inherit"/>
<path d="M11.5 2.5V1.5H9.5V2.5H11.5ZM9.5 7.5V8.5H11.5V7.5H9.5ZM9.5 2.5V7.5H11.5V2.5H9.5Z" fill="inherit"/>
<path d="M17.5 16.5V15.5H15.5V16.5H17.5ZM15.5 21.5V22.5H17.5V21.5H15.5ZM15.5 16.5V21.5H17.5V16.5H15.5Z" fill="inherit"/>
<path d="M8.5 16.5V15.5H6.5V16.5H8.5ZM6.5 21.5V22.5H8.5V21.5H6.5ZM6.5 16.5V21.5H8.5V16.5H6.5Z" fill="inherit"/>
<path d="M11.5 16.5V15.5H9.5V16.5H11.5ZM9.5 21.5V22.5H11.5V21.5H9.5ZM9.5 16.5V21.5H11.5V16.5H9.5Z" fill="inherit"/>
<path d="M14.5 16.5V15.5H12.5V16.5H14.5ZM12.5 21.5V22.5H14.5V21.5H12.5ZM12.5 16.5V21.5H14.5V16.5H12.5Z" fill="inherit"/>
<path d="M21.5 8.5H22.5V6.5H21.5V8.5ZM16.5 6.5H15.5V8.5H16.5V6.5ZM21.5 6.5H16.5V8.5H21.5V6.5Z" fill="inherit"/>
<path d="M7.5 8.5H8.5V6.5H7.5V8.5ZM2.5 6.5H1.5V8.5H2.5V6.5ZM7.5 6.5H2.5V8.5H7.5V6.5Z" fill="inherit"/>
<path d="M21.5 17.5H22.5V15.5H21.5V17.5ZM16.5 15.5H15.5V17.5H16.5V15.5ZM21.5 15.5H16.5V17.5H21.5V15.5Z" fill="inherit"/>
<path d="M7.5 17.5H8.5V15.5H7.5V17.5ZM2.5 15.5H1.5V17.5H2.5V15.5ZM7.5 15.5H2.5V17.5H7.5V15.5Z" fill="inherit"/>
<path d="M21.5 11.5H22.5V9.5H21.5V11.5ZM16.5 9.5H15.5V11.5H16.5V9.5ZM21.5 9.5H16.5V11.5H21.5V9.5Z" fill="inherit"/>
<path d="M7.5 11.5H8.5V9.5H7.5V11.5ZM2.5 9.5H1.5V11.5H2.5V9.5ZM7.5 9.5H2.5V11.5H7.5V9.5Z" fill="inherit"/>
<path d="M21.5 14.5H22.5V12.5H21.5V14.5ZM16.5 12.5H15.5V14.5H16.5V12.5ZM21.5 12.5H16.5V14.5H21.5V12.5Z" fill="inherit"/>
<path d="M7.5 14.5H8.5V12.5H7.5V14.5ZM2.5 12.5H1.5V14.5H2.5V12.5ZM7.5 12.5H2.5V14.5H7.5V12.5Z" fill="inherit"/>
<path d="M10.5 9.5H9.5V11.5H10.5V9.5ZM10.51 11.5H11.51V9.5H10.51V11.5ZM10.5 11.5H10.51V9.5H10.5V11.5Z" fill="inherit"/>
<path d="M13.5 9.5H12.5V11.5H13.5V9.5ZM13.51 11.5H14.51V9.5H13.51V11.5ZM13.5 11.5H13.51V9.5H13.5V11.5Z" fill="inherit"/>
<path d="M13.5 12.5H12.5V14.5H13.5V12.5ZM13.51 14.5H14.51V12.5H13.51V14.5ZM13.5 14.5H13.51V12.5H13.5V14.5Z" fill="inherit"/>
<path d="M10.5 12.5H9.5V14.5H10.5V12.5ZM10.51 14.5H11.51V12.5H10.51V14.5ZM10.5 14.5H10.51V12.5H10.5V14.5Z" fill="inherit"/>
</svg>
