<svg width="24" height="24" viewBox="0 0 24 24" fill="none" xmlns="http://www.w3.org/2000/svg">
<path d="M19.364 7.46456L20.0711 8.17167V8.17167L19.364 7.46456ZM17.2427 9.58588L16.5356 8.87878C16.2409 9.17353 16.1599 9.62021 16.3324 9.99969L17.2427 9.58588ZM20.7783 17.3641L21.4854 18.0712C21.7801 17.7764 21.8611 17.3297 21.6886 16.9503L20.7783 17.3641ZM17.9498 20.1925L17.1605 20.8064C17.3366 21.0328 17.6014 21.1727 17.8877 21.1906C18.174 21.2084 18.4541 21.1024 18.6569 20.8996L17.9498 20.1925ZM13.0001 13.8285L13.7894 13.2146C13.6133 12.9882 13.3485 12.8483 13.0622 12.8305C12.7759 12.8126 12.4958 12.9186 12.293 13.1214L13.0001 13.8285ZM10.1717 16.657L9.46455 15.9498C9.16019 16.2542 9.08473 16.7192 9.27723 17.1042L10.1717 16.657ZM11.5859 19.4854L12.0331 20.3798C12.5271 20.1328 12.7273 19.5321 12.4803 19.0382L11.5859 19.4854ZM8.75744 20.8996L8.05033 21.6067C8.35469 21.9111 8.81966 21.9865 9.20465 21.794L8.75744 20.8996ZM16.5356 4.63614L17.2427 5.34324V5.34324L16.5356 4.63614ZM14.4143 6.75746L14.0005 7.66782C14.38 7.84032 14.8266 7.75932 15.1214 7.46456L14.4143 6.75746ZM6.63612 3.22192L7.04992 2.31156C6.67044 2.13907 6.22377 2.22006 5.92901 2.51482L6.63612 3.22192ZM3.80769 6.05035L3.10059 5.34324C2.89777 5.54606 2.7918 5.82621 2.80963 6.11249C2.82745 6.39877 2.96734 6.66361 3.19375 6.8397L3.80769 6.05035ZM10.1717 11.0001L10.8788 11.7072C11.0816 11.5044 11.1875 11.2242 11.1697 10.938C11.1519 10.6517 11.012 10.3868 10.7856 10.2107L10.1717 11.0001ZM7.34323 13.8285L6.89601 14.723C7.281 14.9154 7.74597 14.84 8.05033 14.5356L7.34323 13.8285ZM4.5148 12.4143L4.96201 11.5199C4.7248 11.4013 4.45018 11.3818 4.19857 11.4656C3.94697 11.5495 3.73898 11.7299 3.62037 11.9671L4.5148 12.4143ZM3.10059 15.2427L2.20616 14.7955C2.01366 15.1805 2.08912 15.6455 2.39348 15.9498L3.10059 15.2427ZM19.364 4.63614C19.5713 4.84337 19.6422 5.02635 19.6233 5.23503C19.6002 5.48898 19.4247 5.98971 18.6569 6.75746L20.0711 8.17167C21.0005 7.24236 21.5321 6.32887 21.615 5.4161C21.7021 4.45806 21.2781 3.7218 20.7783 3.22192L19.364 4.63614ZM18.6569 6.75746L16.5356 8.87878L17.9498 10.293L20.0711 8.17167L18.6569 6.75746ZM16.3324 9.99969L19.8679 17.7779L21.6886 16.9503L18.1531 9.17208L16.3324 9.99969ZM20.0711 16.657L17.2427 19.4854L18.6569 20.8996L21.4854 18.0712L20.0711 16.657ZM18.7392 19.5785L13.7894 13.2146L12.2107 14.4425L17.1605 20.8064L18.7392 19.5785ZM12.293 13.1214L9.46455 15.9498L10.8788 17.3641L13.7072 14.5356L12.293 13.1214ZM9.27723 17.1042L10.6914 19.9326L12.4803 19.0382L11.0661 16.2097L9.27723 17.1042ZM11.1387 18.591L8.31023 20.0052L9.20465 21.794L12.0331 20.3798L11.1387 18.591ZM20.7783 3.22192C20.2784 2.72205 19.5421 2.29803 18.5841 2.38513C17.6713 2.46811 16.7578 2.99972 15.8285 3.92903L17.2427 5.34324C18.0105 4.5755 18.5112 4.4 18.7651 4.37692C18.9738 4.35794 19.1568 4.42891 19.364 4.63614L20.7783 3.22192ZM15.8285 3.92903L13.7072 6.05035L15.1214 7.46456L17.2427 5.34324L15.8285 3.92903ZM14.8281 5.84709L7.04992 2.31156L6.22232 4.13229L14.0005 7.66782L14.8281 5.84709ZM5.92901 2.51482L3.10059 5.34324L4.5148 6.75746L7.34323 3.92903L5.92901 2.51482ZM3.19375 6.8397L9.55771 11.7895L10.7856 10.2107L4.42163 5.261L3.19375 6.8397ZM9.46455 10.293L6.63612 13.1214L8.05033 14.5356L10.8788 11.7072L9.46455 10.293ZM7.79044 12.9341L4.96201 11.5199L4.06759 13.3087L6.89601 14.723L7.79044 12.9341ZM3.62037 11.9671L2.20616 14.7955L3.99501 15.69L5.40923 12.8615L3.62037 11.9671ZM9.46455 20.1925L3.80769 14.5356L2.39348 15.9498L8.05033 21.6067L9.46455 20.1925Z" fill="inherit"/>
</svg>
