<svg width="24" height="24" viewBox="0 0 24 24" fill="none" xmlns="http://www.w3.org/2000/svg">
<path d="M20.0002 3.5H4.00024C2.89567 3.5 2.00024 4.39543 2.00024 5.5V15.5C2.00024 16.6046 2.89567 17.5 4.00024 17.5H9.00024V22L14.0002 17.5H20.0002C21.1048 17.5 22.0002 16.6046 22.0002 15.5V5.5C22.0002 4.39543 21.1048 3.5 20.0002 3.5Z" stroke="inherit" stroke-width="2" stroke-linecap="round" stroke-linejoin="round"/>
<path d="M11.9099 11.0044C10.8053 11.0044 9.90991 11.8998 9.90991 13.0044C9.90991 14.109 10.8053 15.0044 11.9099 15.0044H11.9199C13.0245 15.0044 13.9199 14.109 13.9199 13.0044C13.9199 11.8998 13.0245 11.0044 11.9199 11.0044H11.9099Z" fill="inherit" stroke="#F9FAFA" stroke-width="2" stroke-linecap="round" stroke-linejoin="round"/>
<mask id="path-3-outside-1_14208_48805" maskUnits="userSpaceOnUse" x="4.99976" y="0" width="13" height="13" fill="black">
<rect fill="white" x="4.99976" width="13" height="13"/>
<path fill-rule="evenodd" clip-rule="evenodd" d="M12.1681 4.0288C11.7026 3.94895 11.2239 4.03643 10.8167 4.27574C10.4095 4.51506 10.1001 4.89077 9.94336 5.33632C9.76009 5.85731 9.18917 6.13108 8.66818 5.94781C8.1472 5.76454 7.87342 5.19362 8.05669 4.67263C8.37017 3.78152 8.9889 3.03011 9.8033 2.55148C10.6177 2.07285 11.5752 1.89789 12.5063 2.05758C13.4373 2.21728 14.2818 2.70133 14.8901 3.42401C15.4984 4.14653 15.8313 5.06096 15.83 6.00539C15.8296 7.53575 14.695 8.54637 13.8847 9.08653C13.4491 9.37695 13.0206 9.59049 12.7049 9.73079C12.5457 9.80157 12.4116 9.85528 12.3149 9.89209C12.2665 9.91053 12.2273 9.92482 12.1987 9.93497L12.164 9.94714L12.1529 9.95091L12.149 9.95223L12.1475 9.95274C12.1472 9.95284 12.1463 9.95316 11.83 9.00448L12.1463 9.95316C11.6223 10.1278 11.056 9.84465 10.8813 9.32071C10.7068 8.79711 10.9895 8.2312 11.5128 8.05614L11.5115 8.05657C11.5116 8.05654 11.5117 8.05652 11.5128 8.05614L11.5287 8.05054C11.5441 8.04507 11.5693 8.03593 11.6029 8.02311C11.6704 7.99743 11.7706 7.95739 11.8926 7.90317C12.1395 7.79346 12.461 7.63201 12.7753 7.42243C13.4649 6.96269 13.83 6.47361 13.83 6.00448L13.83 6.00299C13.8307 5.53067 13.6643 5.07334 13.3601 4.71201C13.0559 4.35067 12.6337 4.10864 12.1681 4.0288Z"/>
</mask>
<path fill-rule="evenodd" clip-rule="evenodd" d="M12.1681 4.0288C11.7026 3.94895 11.2239 4.03643 10.8167 4.27574C10.4095 4.51506 10.1001 4.89077 9.94336 5.33632C9.76009 5.85731 9.18917 6.13108 8.66818 5.94781C8.1472 5.76454 7.87342 5.19362 8.05669 4.67263C8.37017 3.78152 8.9889 3.03011 9.8033 2.55148C10.6177 2.07285 11.5752 1.89789 12.5063 2.05758C13.4373 2.21728 14.2818 2.70133 14.8901 3.42401C15.4984 4.14653 15.8313 5.06096 15.83 6.00539C15.8296 7.53575 14.695 8.54637 13.8847 9.08653C13.4491 9.37695 13.0206 9.59049 12.7049 9.73079C12.5457 9.80157 12.4116 9.85528 12.3149 9.89209C12.2665 9.91053 12.2273 9.92482 12.1987 9.93497L12.164 9.94714L12.1529 9.95091L12.149 9.95223L12.1475 9.95274C12.1472 9.95284 12.1463 9.95316 11.83 9.00448L12.1463 9.95316C11.6223 10.1278 11.056 9.84465 10.8813 9.32071C10.7068 8.79711 10.9895 8.2312 11.5128 8.05614L11.5115 8.05657C11.5116 8.05654 11.5117 8.05652 11.5128 8.05614L11.5287 8.05054C11.5441 8.04507 11.5693 8.03593 11.6029 8.02311C11.6704 7.99743 11.7706 7.95739 11.8926 7.90317C12.1395 7.79346 12.461 7.63201 12.7753 7.42243C13.4649 6.96269 13.83 6.47361 13.83 6.00448L13.83 6.00299C13.8307 5.53067 13.6643 5.07334 13.3601 4.71201C13.0559 4.35067 12.6337 4.10864 12.1681 4.0288Z" fill="inherit"/>
<path d="M11.5128 8.05614L11.8286 9.00496L11.8309 9.00418L11.5128 8.05614ZM14.8309 5.00448C14.2787 5.00397 13.8305 5.45128 13.83 6.00357C13.8295 6.55585 14.2768 7.00397 14.8291 7.00448L14.8309 5.00448ZM11.1969 7.10733C11.197 7.10731 11.1971 7.10726 11.1973 7.10721C11.1974 7.10717 11.1978 7.10705 11.1982 7.10689C11.1985 7.10682 11.1989 7.10667 11.1995 7.10647C11.1996 7.10644 11.2016 7.10578 11.2041 7.10496C11.2049 7.10471 11.2063 7.10425 11.2081 7.10367C11.209 7.10338 11.2104 7.10294 11.2121 7.10242C11.2135 7.10196 11.2163 7.10109 11.2198 7.10002C11.2214 7.09952 11.2252 7.09838 11.2273 7.09774C11.2303 7.09687 11.2376 7.09475 11.2419 7.09353C11.2488 7.0916 11.2687 7.08639 11.2816 7.08322C11.3141 7.07608 11.5511 7.0569 11.7538 7.08565C12.4949 7.86846 12.0212 8.91722 11.9439 8.95843C11.923 8.96812 11.8922 8.98136 11.8824 8.9853C11.8768 8.98752 11.8675 8.99109 11.8639 8.99247C11.8613 8.99343 11.8568 8.99509 11.8549 8.99578C11.8509 8.99723 11.8478 8.99835 11.8462 8.99891C11.8444 8.99956 11.8429 9.00008 11.8419 9.00042C11.84 9.00109 11.8384 9.00162 11.8377 9.00189C11.8361 9.00244 11.8348 9.00287 11.8343 9.00303C11.8332 9.00341 11.8323 9.0037 11.8321 9.00379C11.8317 9.00392 11.8314 9.00402 11.8312 9.00408C11.8308 9.0042 11.8306 9.0043 11.8304 9.00434C11.8301 9.00444 11.8299 9.00452 11.8298 9.00457C11.8296 9.00462 11.8294 9.0047 11.8291 9.0048C11.8289 9.00484 11.8287 9.00494 11.8283 9.00506C11.8281 9.00511 11.8278 9.00522 11.8274 9.00534C11.8272 9.00543 11.8263 9.00572 11.8252 9.00609C11.8247 9.00625 11.8234 9.00667 11.8218 9.0072C11.821 9.00746 11.8194 9.00796 11.8174 9.0086C11.8164 9.00892 11.8149 9.00941 11.813 9.01C11.8114 9.01051 11.8081 9.01155 11.8039 9.01282C11.8019 9.01343 11.7971 9.01486 11.7944 9.01567C11.7904 9.01683 11.7802 9.01971 11.774 9.02143C11.7628 9.02437 11.7259 9.03315 11.7 9.03844C11.5834 9.05363 10.5726 8.39667 10.837 7.31904C10.9458 7.23244 11.0911 7.14941 11.117 7.13779C11.1281 7.13308 11.1455 7.12602 11.1518 7.12358C11.1557 7.12205 11.1624 7.11951 11.1652 7.11849C11.1672 7.11774 11.1708 7.11644 11.1723 7.11588C11.1756 7.11468 11.1783 7.11374 11.1797 7.11323C11.1813 7.11266 11.1827 7.1122 11.1835 7.11189C11.1853 7.11127 11.1867 7.11079 11.1874 7.11054C11.1899 7.10968 11.1919 7.10901 11.192 7.10898C11.1926 7.10878 11.1931 7.10862 11.1933 7.10855C11.1937 7.10839 11.1941 7.10827 11.1942 7.10823C11.1944 7.10817 11.1945 7.10813 11.1946 7.1081L11.8309 9.00418C11.8309 9.00417 11.8316 9.00397 11.8323 9.00371C11.8325 9.00364 11.833 9.00348 11.8336 9.00328C11.8337 9.00325 11.8357 9.00257 11.8382 9.00172C11.8389 9.00146 11.8403 9.00098 11.8421 9.00037C11.843 9.00005 11.8443 8.99959 11.8459 8.99903C11.8473 8.99852 11.85 8.99758 11.8533 8.99638C11.8548 8.99581 11.8584 8.99451 11.8604 8.99377C11.8632 8.99274 11.8699 8.9902 11.8738 8.98868C11.8801 8.98624 11.8975 8.97918 11.9086 8.97447C11.9345 8.96284 12.0799 8.87981 12.1886 8.79322C12.453 7.71558 11.4422 7.05862 11.3256 7.07381C11.2997 7.0791 11.2628 7.08789 11.2517 7.09083C11.2454 7.09254 11.2352 7.09543 11.2313 7.09658C11.2285 7.09739 11.2237 7.09882 11.2217 7.09943C11.2175 7.1007 11.2142 7.10174 11.2126 7.10225C11.2107 7.10285 11.2092 7.10334 11.2082 7.10366C11.2062 7.10429 11.2046 7.1048 11.2038 7.10505C11.2022 7.10559 11.2009 7.10601 11.2004 7.10617C11.1993 7.10653 11.1984 7.10682 11.1982 7.10691C11.1978 7.10704 11.1975 7.10714 11.1973 7.1072C11.1969 7.10733 11.1966 7.10742 11.1965 7.10747C11.1962 7.10757 11.1959 7.10766 11.1958 7.10772C11.1956 7.10778 11.1953 7.10786 11.195 7.10797C11.1949 7.10801 11.1946 7.10811 11.1942 7.10823C11.194 7.10829 11.1937 7.1084 11.1933 7.10853C11.1931 7.10862 11.1922 7.10891 11.1911 7.10929C11.1906 7.10945 11.1894 7.10988 11.1877 7.11043C11.187 7.1107 11.1854 7.11123 11.1835 7.1119C11.1825 7.11224 11.181 7.11276 11.1792 7.11341C11.1776 7.11397 11.1745 7.11509 11.1705 7.11654C11.1686 7.11724 11.1641 7.11889 11.1615 7.11985C11.1579 7.12123 11.1486 7.1248 11.143 7.12702C11.1332 7.13096 11.1024 7.14421 11.0815 7.15389C11.0042 7.1951 10.5305 8.24386 11.2717 9.02667C11.4744 9.05543 11.7113 9.03624 11.7438 9.0291C11.7567 9.02594 11.7766 9.02072 11.7835 9.01879C11.7878 9.01757 11.7951 9.01546 11.7981 9.01458C11.8002 9.01394 11.804 9.0128 11.8056 9.0123C11.8091 9.01123 11.8119 9.01037 11.8133 9.0099C11.815 9.00938 11.8164 9.00894 11.8173 9.00865C11.8191 9.00807 11.8205 9.00761 11.8213 9.00736C11.8238 9.00655 11.8258 9.00588 11.8259 9.00585C11.8265 9.00565 11.827 9.0055 11.8272 9.00542C11.8279 9.00517 11.8286 9.00496 11.8286 9.00496L11.1969 7.10733ZM16.83 6.00539C16.83 6.00539 16.83 6.00539 16.83 6.00539C16.83 6.00539 16.83 6.00539 16.83 6.00539C16.83 6.00539 16.83 6.00539 16.83 6.00539C16.83 6.00539 16.83 6.00539 16.83 6.00539C16.83 6.00538 16.83 6.00538 16.83 6.00538C16.83 6.00538 16.83 6.00538 16.83 6.00538C16.83 6.00538 16.83 6.00538 16.83 6.00538C16.83 6.00538 16.83 6.00538 16.83 6.00538C16.83 6.00538 16.83 6.00538 16.83 6.00538C16.83 6.00538 16.83 6.00538 16.83 6.00538C16.83 6.00538 16.83 6.00538 16.83 6.00538C16.83 6.00538 16.83 6.00538 16.83 6.00538C16.83 6.00538 16.83 6.00538 16.83 6.00538C16.83 6.00538 16.83 6.00538 16.83 6.00538C16.83 6.00537 16.83 6.00537 16.83 6.00537C16.83 6.00537 16.83 6.00537 16.83 6.00537C16.83 6.00537 16.83 6.00537 16.83 6.00537C16.83 6.00537 16.83 6.00537 16.83 6.00537C16.83 6.00537 16.83 6.00537 16.83 6.00537C16.83 6.00537 16.83 6.00537 16.83 6.00537C16.83 6.00537 16.83 6.00537 16.83 6.00537C16.83 6.00537 16.83 6.00537 16.83 6.00537V6.00537C16.83 6.00537 16.83 6.00537 16.83 6.00537C16.83 6.00537 16.83 6.00537 16.83 6.00537V6.00536C16.83 6.00536 16.83 6.00536 16.83 6.00536C16.83 6.00536 16.83 6.00536 16.83 6.00536V6.00536C16.83 6.00536 16.83 6.00536 16.83 6.00536C16.83 6.00536 16.83 6.00536 16.83 6.00536V6.00536C16.83 6.00536 16.83 6.00536 16.83 6.00536V6.00536C16.83 6.00536 16.83 6.00536 16.83 6.00536V6.00536C16.83 6.00536 16.83 6.00536 16.83 6.00536C16.83 6.00536 16.83 6.00536 16.83 6.00536V6.00536C16.83 6.00535 16.83 6.00535 16.83 6.00535V6.00535V6.00535C16.83 6.00535 16.83 6.00535 16.83 6.00535C16.83 6.00535 16.83 6.00535 16.83 6.00535V6.00535V6.00535C16.83 6.00535 16.83 6.00535 16.83 6.00535C16.83 6.00535 16.83 6.00535 16.83 6.00535C16.83 6.00535 16.83 6.00535 16.83 6.00535V6.00535V6.00535V6.00535V6.00535C16.83 6.00535 16.83 6.00535 16.83 6.00535C16.83 6.00535 16.83 6.00535 16.83 6.00535C16.83 6.00535 16.83 6.00535 16.83 6.00535C16.83 6.00535 16.83 6.00535 16.83 6.00535C16.83 6.00534 16.83 6.00534 16.83 6.00534V6.00534V6.00534V6.00534C16.83 6.00534 16.83 6.00534 16.83 6.00534C16.83 6.00534 16.83 6.00534 16.83 6.00534C16.83 6.00534 16.83 6.00534 16.83 6.00534V6.00534V6.00534C16.83 6.00534 16.83 6.00534 16.83 6.00534V6.00534C16.83 6.00534 16.83 6.00534 16.83 6.00534V6.00534C16.83 6.00534 16.83 6.00534 16.83 6.00534V6.00534V6.00534C16.83 6.00534 16.83 6.00534 16.83 6.00534V6.00534V6.00534C16.83 6.00534 16.83 6.00534 16.83 6.00534C16.83 6.00534 16.83 6.00534 16.83 6.00534C16.83 6.00533 16.83 6.00533 16.83 6.00533V6.00533C16.83 6.00533 16.83 6.00533 16.83 6.00533C15.83 6.00533 14.83 6.00533 14.83 6.00533C14.83 6.00533 14.83 6.00533 14.83 6.00533C14.83 6.00533 14.83 6.00533 14.83 6.00533C14.83 6.00533 14.83 6.00533 14.83 6.00534V6.00534V6.00534C14.83 6.00534 14.83 6.00534 14.83 6.00534C14.83 6.00534 14.83 6.00534 14.83 6.00534C14.83 6.00534 14.83 6.00534 14.83 6.00534C14.83 6.00534 14.83 6.00534 14.83 6.00534V6.00534V6.00534C14.83 6.00534 14.83 6.00534 14.83 6.00534C14.83 6.00534 14.83 6.00534 14.83 6.00534C14.83 6.00534 14.83 6.00534 14.83 6.00534V6.00534C14.83 6.00534 14.83 6.00534 14.83 6.00534C14.83 6.00534 14.83 6.00534 14.83 6.00534C14.83 6.00534 14.83 6.00534 14.83 6.00534C14.83 6.00534 14.83 6.00534 14.83 6.00534C14.83 6.00534 14.83 6.00534 14.83 6.00534V6.00534C14.83 6.00534 14.83 6.00534 14.83 6.00534V6.00534C14.83 6.00534 14.83 6.00534 14.83 6.00535C14.83 6.00535 14.83 6.00535 14.83 6.00535V6.00535C14.83 6.00535 14.83 6.00535 14.83 6.00535C14.83 6.00535 14.83 6.00535 14.83 6.00535C14.83 6.00535 14.83 6.00535 14.83 6.00535V6.00535C14.83 6.00535 14.83 6.00535 14.83 6.00535C14.83 6.00535 14.83 6.00535 14.83 6.00535C14.83 6.00535 14.83 6.00535 14.83 6.00535C14.83 6.00535 14.83 6.00535 14.83 6.00535V6.00535V6.00535C14.83 6.00535 14.83 6.00535 14.83 6.00535C14.83 6.00535 14.83 6.00535 14.83 6.00535C14.83 6.00535 14.83 6.00535 14.83 6.00535C14.83 6.00535 14.83 6.00535 14.83 6.00535C14.83 6.00535 14.83 6.00535 14.83 6.00535C14.83 6.00535 14.83 6.00535 14.83 6.00535C14.83 6.00535 14.83 6.00535 14.83 6.00535V6.00535V6.00536V6.00536V6.00536V6.00536V6.00536V6.00536V6.00536V6.00536V6.00536V6.00536V6.00536V6.00536V6.00536V6.00536V6.00536V6.00536V6.00536V6.00536C14.83 6.00536 14.83 6.00536 14.83 6.00536C14.83 6.00536 14.83 6.00536 14.83 6.00536C14.83 6.00536 14.83 6.00536 14.83 6.00536C14.83 6.00537 14.83 6.00537 14.83 6.00537C14.83 6.00537 14.83 6.00537 14.83 6.00537C14.83 6.00537 14.83 6.00537 14.83 6.00537C14.83 6.00537 14.83 6.00537 14.83 6.00537C14.83 6.00537 14.83 6.00537 14.83 6.00537V6.00537V6.00537V6.00537V6.00537C14.83 6.00537 14.83 6.00537 14.83 6.00537C14.83 6.00537 14.83 6.00537 14.83 6.00537C14.83 6.00537 14.83 6.00537 14.83 6.00537C14.83 6.00537 14.83 6.00537 14.83 6.00537C14.83 6.00537 14.83 6.00537 14.83 6.00537V6.00537V6.00537V6.00537C14.83 6.00537 14.83 6.00537 14.83 6.00537C14.83 6.00537 14.83 6.00537 14.83 6.00538C14.83 6.00538 14.83 6.00538 14.83 6.00538C14.83 6.00538 14.83 6.00538 14.83 6.00538V6.00538V6.00538C14.83 6.00538 14.83 6.00538 14.83 6.00538C14.83 6.00538 14.83 6.00538 14.83 6.00538C14.83 6.00538 14.83 6.00538 14.83 6.00538C14.83 6.00538 14.83 6.00538 14.83 6.00538V6.00538V6.00538C14.83 6.00538 14.83 6.00538 14.83 6.00538C14.83 6.00538 14.83 6.00538 14.83 6.00538C14.83 6.00538 14.83 6.00538 14.83 6.00538C14.83 6.00538 14.83 6.00538 14.83 6.00538V6.00538V6.00538C14.83 6.00538 14.83 6.00538 14.83 6.00538C14.83 6.00538 14.83 6.00538 14.83 6.00539C14.83 6.00539 14.83 6.00539 14.83 6.00539V6.00539V6.00539V6.00539C14.83 6.00539 14.83 6.00539 14.83 6.00539C14.83 6.00539 14.83 6.00539 14.83 6.00539C14.83 6.00539 14.83 6.00539 14.83 6.00539V6.00539V6.00539C14.83 6.00539 14.83 6.00539 14.83 6.00539C14.83 6.00539 14.83 6.00539 14.83 6.00539C14.83 6.00539 14.83 6.00539 14.83 6.00539V6.00539V6.00539V6.00539C14.83 6.00539 14.83 6.00539 14.83 6.00539C14.83 6.00539 14.83 6.00539 14.83 6.00539C14.83 6.00539 14.83 6.00539 14.83 6.0054V6.0054V6.0054C14.83 6.0054 14.83 6.0054 14.83 6.0054C14.83 6.0054 14.83 6.0054 14.83 6.0054C14.83 6.0054 14.83 6.0054 14.83 6.0054C14.83 6.0054 14.83 6.0054 14.83 6.0054V6.0054V6.0054C14.83 6.0054 14.83 6.0054 14.83 6.0054C14.83 6.0054 14.83 6.0054 14.83 6.0054C14.83 6.0054 14.83 6.0054 14.83 6.0054C14.83 6.0054 14.83 6.0054 14.83 6.0054V6.0054V6.0054C14.83 6.0054 14.83 6.0054 14.83 6.0054C14.83 6.0054 14.83 6.0054 14.83 6.0054C14.83 6.0054 14.83 6.0054 14.83 6.0054C14.83 6.0054 14.83 6.0054 14.83 6.00541V6.00541V6.00541V6.00541C14.83 6.00541 14.83 6.00541 14.83 6.00541C14.83 6.00541 14.83 6.00541 14.83 6.00541C14.83 6.00541 14.83 6.00541 14.83 6.00541C14.83 6.00541 14.83 6.00541 14.83 6.00541C14.83 6.00541 14.83 6.00541 14.83 6.00541V6.00541V6.00541V6.00541V6.00541C14.83 6.00541 14.83 6.00541 14.83 6.00541C14.83 6.00541 14.83 6.00541 14.83 6.00541C14.83 6.00541 14.83 6.00541 14.83 6.00541C14.83 6.00541 14.83 6.00541 14.83 6.00541C14.83 6.00541 14.83 6.00541 14.83 6.00541C14.83 6.00541 14.83 6.00541 14.83 6.00541C14.83 6.00541 14.83 6.00541 14.83 6.00542C14.83 6.00542 14.83 6.00542 14.83 6.00542V6.00542V6.00542V6.00542V6.00542V6.00542V6.00542V6.00542V6.00542V6.00542V6.00542V6.00542V6.00542V6.00542V6.00542V6.00542V6.00542V6.00542V6.00542V6.00542C14.83 6.00542 14.83 6.00542 14.83 6.00543C14.83 6.00543 14.83 6.00543 14.83 6.00543C14.83 6.00543 14.83 6.00543 14.83 6.00543C14.83 6.00543 14.83 6.00543 14.83 6.00543C14.83 6.00543 14.83 6.00543 14.83 6.00543C14.83 6.00543 14.83 6.00543 14.83 6.00543C14.83 6.00543 14.83 6.00543 14.83 6.00543V6.00543V6.00543C14.83 6.00543 14.83 6.00543 14.83 6.00543C14.83 6.00543 14.83 6.00543 14.83 6.00543C14.83 6.00543 14.83 6.00543 14.83 6.00543C14.83 6.00543 14.83 6.00543 14.83 6.00543V6.00543C14.83 6.00543 14.83 6.00543 14.83 6.00543C14.83 6.00543 14.83 6.00543 14.83 6.00543C14.83 6.00543 14.83 6.00543 14.83 6.00543V6.00543C14.83 6.00543 14.83 6.00543 14.83 6.00543C14.83 6.00543 14.83 6.00543 14.83 6.00543V6.00543C14.83 6.00543 14.83 6.00543 14.83 6.00544V6.00544C14.83 6.00544 14.83 6.00544 14.83 6.00544C14.83 6.00544 14.83 6.00544 14.83 6.00544C14.83 6.00544 14.83 6.00544 14.83 6.00544C14.83 6.00544 14.83 6.00544 14.83 6.00544C14.83 6.00544 14.83 6.00544 14.83 6.00544V6.00544C14.83 6.00544 14.83 6.00544 14.83 6.00544C14.83 6.00544 14.83 6.00544 14.83 6.00544C14.83 6.00544 14.83 6.00544 14.83 6.00544V6.00544V6.00544C14.83 6.00544 14.83 6.00544 14.83 6.00544C14.83 6.00544 14.83 6.00544 14.83 6.00544C14.83 6.00544 14.83 6.00544 14.83 6.00544C14.83 6.00544 14.83 6.00544 14.83 6.00544V6.00544V6.00544C14.83 6.00544 14.83 6.00544 14.83 6.00544C14.83 6.00544 14.83 6.00544 14.83 6.00545C14.83 6.00545 14.83 6.00545 14.83 6.00545C14.83 6.00545 15.83 6.00545 16.83 6.00545C16.83 6.00545 16.83 6.00545 16.83 6.00545V6.00544C16.83 6.00544 16.83 6.00544 16.83 6.00544C16.83 6.00544 16.83 6.00544 16.83 6.00544C16.83 6.00544 16.83 6.00544 16.83 6.00544V6.00544V6.00544C16.83 6.00544 16.83 6.00544 16.83 6.00544V6.00544V6.00544C16.83 6.00544 16.83 6.00544 16.83 6.00544V6.00544C16.83 6.00544 16.83 6.00544 16.83 6.00544V6.00544C16.83 6.00544 16.83 6.00544 16.83 6.00544V6.00544V6.00544C16.83 6.00544 16.83 6.00544 16.83 6.00544C16.83 6.00544 16.83 6.00544 16.83 6.00544C16.83 6.00544 16.83 6.00544 16.83 6.00544V6.00544V6.00543V6.00543C16.83 6.00543 16.83 6.00543 16.83 6.00543C16.83 6.00543 16.83 6.00543 16.83 6.00543C16.83 6.00543 16.83 6.00543 16.83 6.00543C16.83 6.00543 16.83 6.00543 16.83 6.00543C16.83 6.00543 16.83 6.00543 16.83 6.00543V6.00543V6.00543V6.00543V6.00543C16.83 6.00543 16.83 6.00543 16.83 6.00543C16.83 6.00543 16.83 6.00543 16.83 6.00543C16.83 6.00543 16.83 6.00543 16.83 6.00543V6.00543V6.00543C16.83 6.00543 16.83 6.00543 16.83 6.00543C16.83 6.00543 16.83 6.00543 16.83 6.00543V6.00543V6.00542C16.83 6.00542 16.83 6.00542 16.83 6.00542V6.00542C16.83 6.00542 16.83 6.00542 16.83 6.00542C16.83 6.00542 16.83 6.00542 16.83 6.00542V6.00542C16.83 6.00542 16.83 6.00542 16.83 6.00542V6.00542C16.83 6.00542 16.83 6.00542 16.83 6.00542V6.00542C16.83 6.00542 16.83 6.00542 16.83 6.00542C16.83 6.00542 16.83 6.00542 16.83 6.00542V6.00542C16.83 6.00542 16.83 6.00542 16.83 6.00542C16.83 6.00542 16.83 6.00541 16.83 6.00541V6.00541C16.83 6.00541 16.83 6.00541 16.83 6.00541C16.83 6.00541 16.83 6.00541 16.83 6.00541V6.00541C16.83 6.00541 16.83 6.00541 16.83 6.00541C16.83 6.00541 16.83 6.00541 16.83 6.00541C16.83 6.00541 16.83 6.00541 16.83 6.00541C16.83 6.00541 16.83 6.00541 16.83 6.00541C16.83 6.00541 16.83 6.00541 16.83 6.00541C16.83 6.00541 16.83 6.00541 16.83 6.00541C16.83 6.00541 16.83 6.00541 16.83 6.0054C16.83 6.0054 16.83 6.0054 16.83 6.0054C16.83 6.0054 16.83 6.0054 16.83 6.0054C16.83 6.0054 16.83 6.0054 16.83 6.0054C16.83 6.0054 16.83 6.0054 16.83 6.0054C16.83 6.0054 16.83 6.0054 16.83 6.0054C16.83 6.0054 16.83 6.0054 16.83 6.0054C16.83 6.0054 16.83 6.0054 16.83 6.0054C16.83 6.0054 16.83 6.0054 16.83 6.0054C16.83 6.0054 16.83 6.0054 16.83 6.0054C16.83 6.0054 16.83 6.0054 16.83 6.00539C16.83 6.00539 16.83 6.00539 16.83 6.00539C16.83 6.00539 16.83 6.00539 16.83 6.00539C16.83 6.00539 16.83 6.00539 16.83 6.00539C16.83 6.00539 16.83 6.00539 16.83 6.00539C16.83 6.00539 16.83 6.00539 16.83 6.00539H14.83C14.83 6.00539 14.83 6.00539 14.83 6.00539C14.83 6.00539 14.83 6.00539 14.83 6.00539C14.83 6.00539 14.83 6.00539 14.83 6.00539C14.83 6.00539 14.83 6.00539 14.83 6.00539C14.83 6.00539 14.83 6.00539 14.83 6.00539C14.83 6.0054 14.83 6.0054 14.83 6.0054C14.83 6.0054 14.83 6.0054 14.83 6.0054C14.83 6.0054 14.83 6.0054 14.83 6.0054C14.83 6.0054 14.83 6.0054 14.83 6.0054C14.83 6.0054 14.83 6.0054 14.83 6.0054C14.83 6.0054 14.83 6.0054 14.83 6.0054C14.83 6.0054 14.83 6.0054 14.83 6.0054C14.83 6.0054 14.83 6.0054 14.83 6.0054C14.83 6.0054 14.83 6.0054 14.83 6.0054C14.83 6.0054 14.83 6.0054 14.83 6.0054C14.83 6.00541 14.83 6.00541 14.83 6.00541C14.83 6.00541 14.83 6.00541 14.83 6.00541C14.83 6.00541 14.83 6.00541 14.83 6.00541C14.83 6.00541 14.83 6.00541 14.83 6.00541C14.83 6.00541 14.83 6.00541 14.83 6.00541C14.83 6.00541 14.83 6.00541 14.83 6.00541C14.83 6.00541 14.83 6.00541 14.83 6.00541V6.00541C14.83 6.00541 14.83 6.00541 14.83 6.00541C14.83 6.00541 14.83 6.00541 14.83 6.00541V6.00541C14.83 6.00541 14.83 6.00542 14.83 6.00542C14.83 6.00542 14.83 6.00542 14.83 6.00542V6.00542C14.83 6.00542 14.83 6.00542 14.83 6.00542C14.83 6.00542 14.83 6.00542 14.83 6.00542V6.00542C14.83 6.00542 14.83 6.00542 14.83 6.00542V6.00542C14.83 6.00542 14.83 6.00542 14.83 6.00542V6.00542C14.83 6.00542 14.83 6.00542 14.83 6.00542C14.83 6.00542 14.83 6.00542 14.83 6.00542V6.00542C14.83 6.00542 14.83 6.00542 14.83 6.00542V6.00543V6.00543C14.83 6.00543 14.83 6.00543 14.83 6.00543C14.83 6.00543 14.83 6.00543 14.83 6.00543V6.00543V6.00543C14.83 6.00543 14.83 6.00543 14.83 6.00543C14.83 6.00543 14.83 6.00543 14.83 6.00543C14.83 6.00543 14.83 6.00543 14.83 6.00543V6.00543V6.00543V6.00543V6.00543C14.83 6.00543 14.83 6.00543 14.83 6.00543C14.83 6.00543 14.83 6.00543 14.83 6.00543C14.83 6.00543 14.83 6.00543 14.83 6.00543C14.83 6.00543 14.83 6.00543 14.83 6.00543C14.83 6.00543 14.83 6.00543 14.83 6.00543V6.00543V6.00544V6.00544C14.83 6.00544 14.83 6.00544 14.83 6.00544C14.83 6.00544 14.83 6.00544 14.83 6.00544C14.83 6.00544 14.83 6.00544 14.83 6.00544V6.00544V6.00544C14.83 6.00544 14.83 6.00544 14.83 6.00544V6.00544C14.83 6.00544 14.83 6.00544 14.83 6.00544V6.00544C14.83 6.00544 14.83 6.00544 14.83 6.00544V6.00544V6.00544C14.83 6.00544 14.83 6.00544 14.83 6.00544V6.00544V6.00544C14.83 6.00544 14.83 6.00544 14.83 6.00544C14.83 6.00544 14.83 6.00544 14.83 6.00544C14.83 6.00544 14.83 6.00544 14.83 6.00544V6.00545C14.83 6.00545 14.83 6.00545 14.83 6.00545C15.83 6.00545 16.83 6.00545 16.83 6.00545C16.83 6.00545 16.83 6.00545 16.83 6.00545C16.83 6.00544 16.83 6.00544 16.83 6.00544C16.83 6.00544 16.83 6.00544 16.83 6.00544V6.00544V6.00544C16.83 6.00544 16.83 6.00544 16.83 6.00544C16.83 6.00544 16.83 6.00544 16.83 6.00544C16.83 6.00544 16.83 6.00544 16.83 6.00544C16.83 6.00544 16.83 6.00544 16.83 6.00544V6.00544V6.00544C16.83 6.00544 16.83 6.00544 16.83 6.00544C16.83 6.00544 16.83 6.00544 16.83 6.00544C16.83 6.00544 16.83 6.00544 16.83 6.00544V6.00544C16.83 6.00544 16.83 6.00544 16.83 6.00544C16.83 6.00544 16.83 6.00544 16.83 6.00544C16.83 6.00544 16.83 6.00544 16.83 6.00544C16.83 6.00544 16.83 6.00544 16.83 6.00544C16.83 6.00544 16.83 6.00544 16.83 6.00544V6.00544C16.83 6.00543 16.83 6.00543 16.83 6.00543V6.00543C16.83 6.00543 16.83 6.00543 16.83 6.00543C16.83 6.00543 16.83 6.00543 16.83 6.00543V6.00543C16.83 6.00543 16.83 6.00543 16.83 6.00543C16.83 6.00543 16.83 6.00543 16.83 6.00543C16.83 6.00543 16.83 6.00543 16.83 6.00543V6.00543C16.83 6.00543 16.83 6.00543 16.83 6.00543C16.83 6.00543 16.83 6.00543 16.83 6.00543C16.83 6.00543 16.83 6.00543 16.83 6.00543C16.83 6.00543 16.83 6.00543 16.83 6.00543V6.00543V6.00543C16.83 6.00543 16.83 6.00543 16.83 6.00543C16.83 6.00543 16.83 6.00543 16.83 6.00543C16.83 6.00543 16.83 6.00543 16.83 6.00543C16.83 6.00543 16.83 6.00543 16.83 6.00543C16.83 6.00543 16.83 6.00543 16.83 6.00543C16.83 6.00543 16.83 6.00543 16.83 6.00543C16.83 6.00542 16.83 6.00542 16.83 6.00542V6.00542V6.00542V6.00542V6.00542V6.00542V6.00542V6.00542V6.00542V6.00542V6.00542V6.00542V6.00542V6.00542V6.00542V6.00542V6.00542V6.00542V6.00542V6.00542C16.83 6.00542 16.83 6.00542 16.83 6.00542C16.83 6.00541 16.83 6.00541 16.83 6.00541C16.83 6.00541 16.83 6.00541 16.83 6.00541C16.83 6.00541 16.83 6.00541 16.83 6.00541C16.83 6.00541 16.83 6.00541 16.83 6.00541C16.83 6.00541 16.83 6.00541 16.83 6.00541C16.83 6.00541 16.83 6.00541 16.83 6.00541C16.83 6.00541 16.83 6.00541 16.83 6.00541V6.00541V6.00541V6.00541V6.00541C16.83 6.00541 16.83 6.00541 16.83 6.00541C16.83 6.00541 16.83 6.00541 16.83 6.00541C16.83 6.00541 16.83 6.00541 16.83 6.00541C16.83 6.00541 16.83 6.00541 16.83 6.00541C16.83 6.00541 16.83 6.00541 16.83 6.00541V6.00541V6.00541V6.00541C16.83 6.0054 16.83 6.0054 16.83 6.0054C16.83 6.0054 16.83 6.0054 16.83 6.0054C16.83 6.0054 16.83 6.0054 16.83 6.0054C16.83 6.0054 16.83 6.0054 16.83 6.0054V6.0054V6.0054C16.83 6.0054 16.83 6.0054 16.83 6.0054C16.83 6.0054 16.83 6.0054 16.83 6.0054C16.83 6.0054 16.83 6.0054 16.83 6.0054C16.83 6.0054 16.83 6.0054 16.83 6.0054V6.0054V6.0054C16.83 6.0054 16.83 6.0054 16.83 6.0054C16.83 6.0054 16.83 6.0054 16.83 6.0054C16.83 6.0054 16.83 6.0054 16.83 6.0054C16.83 6.0054 16.83 6.0054 16.83 6.0054V6.0054V6.0054C16.83 6.00539 16.83 6.00539 16.83 6.00539C16.83 6.00539 16.83 6.00539 16.83 6.00539C16.83 6.00539 16.83 6.00539 16.83 6.00539V6.00539V6.00539V6.00539C16.83 6.00539 16.83 6.00539 16.83 6.00539C16.83 6.00539 16.83 6.00539 16.83 6.00539C16.83 6.00539 16.83 6.00539 16.83 6.00539V6.00539V6.00539C16.83 6.00539 16.83 6.00539 16.83 6.00539C16.83 6.00539 16.83 6.00539 16.83 6.00539C16.83 6.00539 16.83 6.00539 16.83 6.00539V6.00539V6.00539V6.00539C16.83 6.00539 16.83 6.00539 16.83 6.00539C16.83 6.00538 16.83 6.00538 16.83 6.00538C16.83 6.00538 16.83 6.00538 16.83 6.00538V6.00538V6.00538C16.83 6.00538 16.83 6.00538 16.83 6.00538C16.83 6.00538 16.83 6.00538 16.83 6.00538C16.83 6.00538 16.83 6.00538 16.83 6.00538C16.83 6.00538 16.83 6.00538 16.83 6.00538V6.00538V6.00538C16.83 6.00538 16.83 6.00538 16.83 6.00538C16.83 6.00538 16.83 6.00538 16.83 6.00538C16.83 6.00538 16.83 6.00538 16.83 6.00538C16.83 6.00538 16.83 6.00538 16.83 6.00538V6.00538V6.00538C16.83 6.00538 16.83 6.00538 16.83 6.00538C16.83 6.00538 16.83 6.00538 16.83 6.00538C16.83 6.00537 16.83 6.00537 16.83 6.00537C16.83 6.00537 16.83 6.00537 16.83 6.00537V6.00537V6.00537V6.00537C16.83 6.00537 16.83 6.00537 16.83 6.00537C16.83 6.00537 16.83 6.00537 16.83 6.00537C16.83 6.00537 16.83 6.00537 16.83 6.00537C16.83 6.00537 16.83 6.00537 16.83 6.00537C16.83 6.00537 16.83 6.00537 16.83 6.00537V6.00537V6.00537V6.00537V6.00537C16.83 6.00537 16.83 6.00537 16.83 6.00537C16.83 6.00537 16.83 6.00537 16.83 6.00537C16.83 6.00537 16.83 6.00537 16.83 6.00537C16.83 6.00537 16.83 6.00537 16.83 6.00537C16.83 6.00537 16.83 6.00537 16.83 6.00536C16.83 6.00536 16.83 6.00536 16.83 6.00536C16.83 6.00536 16.83 6.00536 16.83 6.00536C16.83 6.00536 16.83 6.00536 16.83 6.00536V6.00536V6.00536V6.00536V6.00536V6.00536V6.00536V6.00536V6.00536V6.00536V6.00536V6.00536V6.00536V6.00536V6.00536V6.00536V6.00536V6.00536V6.00535V6.00535C16.83 6.00535 16.83 6.00535 16.83 6.00535C16.83 6.00535 16.83 6.00535 16.83 6.00535C16.83 6.00535 16.83 6.00535 16.83 6.00535C16.83 6.00535 16.83 6.00535 16.83 6.00535C16.83 6.00535 16.83 6.00535 16.83 6.00535C16.83 6.00535 16.83 6.00535 16.83 6.00535C16.83 6.00535 16.83 6.00535 16.83 6.00535V6.00535V6.00535C16.83 6.00535 16.83 6.00535 16.83 6.00535C16.83 6.00535 16.83 6.00535 16.83 6.00535C16.83 6.00535 16.83 6.00535 16.83 6.00535C16.83 6.00535 16.83 6.00535 16.83 6.00535V6.00535C16.83 6.00535 16.83 6.00535 16.83 6.00535C16.83 6.00535 16.83 6.00535 16.83 6.00535C16.83 6.00535 16.83 6.00535 16.83 6.00535V6.00535C16.83 6.00535 16.83 6.00535 16.83 6.00535C16.83 6.00534 16.83 6.00534 16.83 6.00534V6.00534C16.83 6.00534 16.83 6.00534 16.83 6.00534V6.00534C16.83 6.00534 16.83 6.00534 16.83 6.00534C16.83 6.00534 16.83 6.00534 16.83 6.00534C16.83 6.00534 16.83 6.00534 16.83 6.00534C16.83 6.00534 16.83 6.00534 16.83 6.00534C16.83 6.00534 16.83 6.00534 16.83 6.00534V6.00534C16.83 6.00534 16.83 6.00534 16.83 6.00534C16.83 6.00534 16.83 6.00534 16.83 6.00534C16.83 6.00534 16.83 6.00534 16.83 6.00534V6.00534V6.00534C16.83 6.00534 16.83 6.00534 16.83 6.00534C16.83 6.00534 16.83 6.00534 16.83 6.00534C16.83 6.00534 16.83 6.00534 16.83 6.00534C16.83 6.00534 16.83 6.00534 16.83 6.00534V6.00534V6.00534C16.83 6.00533 16.83 6.00533 16.83 6.00533C16.83 6.00533 16.83 6.00533 16.83 6.00533C16.83 6.00533 16.83 6.00533 16.83 6.00533C16.83 6.00533 15.83 6.00533 14.83 6.00533C14.83 6.00533 14.83 6.00533 14.83 6.00533V6.00533C14.83 6.00533 14.83 6.00533 14.83 6.00534C14.83 6.00534 14.83 6.00534 14.83 6.00534C14.83 6.00534 14.83 6.00534 14.83 6.00534V6.00534V6.00534C14.83 6.00534 14.83 6.00534 14.83 6.00534V6.00534V6.00534C14.83 6.00534 14.83 6.00534 14.83 6.00534V6.00534C14.83 6.00534 14.83 6.00534 14.83 6.00534V6.00534C14.83 6.00534 14.83 6.00534 14.83 6.00534V6.00534V6.00534C14.83 6.00534 14.83 6.00534 14.83 6.00534C14.83 6.00534 14.83 6.00534 14.83 6.00534C14.83 6.00534 14.83 6.00534 14.83 6.00534V6.00534V6.00534V6.00534C14.83 6.00534 14.83 6.00534 14.83 6.00535C14.83 6.00535 14.83 6.00535 14.83 6.00535C14.83 6.00535 14.83 6.00535 14.83 6.00535C14.83 6.00535 14.83 6.00535 14.83 6.00535C14.83 6.00535 14.83 6.00535 14.83 6.00535V6.00535V6.00535V6.00535V6.00535C14.83 6.00535 14.83 6.00535 14.83 6.00535C14.83 6.00535 14.83 6.00535 14.83 6.00535C14.83 6.00535 14.83 6.00535 14.83 6.00535V6.00535V6.00535C14.83 6.00535 14.83 6.00535 14.83 6.00535C14.83 6.00535 14.83 6.00535 14.83 6.00535V6.00535V6.00535C14.83 6.00535 14.83 6.00535 14.83 6.00536V6.00536C14.83 6.00536 14.83 6.00536 14.83 6.00536C14.83 6.00536 14.83 6.00536 14.83 6.00536V6.00536C14.83 6.00536 14.83 6.00536 14.83 6.00536V6.00536C14.83 6.00536 14.83 6.00536 14.83 6.00536V6.00536C14.83 6.00536 14.83 6.00536 14.83 6.00536C14.83 6.00536 14.83 6.00536 14.83 6.00536V6.00536C14.83 6.00536 14.83 6.00536 14.83 6.00536C14.83 6.00536 14.83 6.00536 14.83 6.00536V6.00537C14.83 6.00537 14.83 6.00537 14.83 6.00537C14.83 6.00537 14.83 6.00537 14.83 6.00537V6.00537C14.83 6.00537 14.83 6.00537 14.83 6.00537C14.83 6.00537 14.83 6.00537 14.83 6.00537C14.83 6.00537 14.83 6.00537 14.83 6.00537C14.83 6.00537 14.83 6.00537 14.83 6.00537C14.83 6.00537 14.83 6.00537 14.83 6.00537C14.83 6.00537 14.83 6.00537 14.83 6.00537C14.83 6.00537 14.83 6.00537 14.83 6.00537C14.83 6.00537 14.83 6.00537 14.83 6.00538C14.83 6.00538 14.83 6.00538 14.83 6.00538C14.83 6.00538 14.83 6.00538 14.83 6.00538C14.83 6.00538 14.83 6.00538 14.83 6.00538C14.83 6.00538 14.83 6.00538 14.83 6.00538C14.83 6.00538 14.83 6.00538 14.83 6.00538C14.83 6.00538 14.83 6.00538 14.83 6.00538C14.83 6.00538 14.83 6.00538 14.83 6.00538C14.83 6.00538 14.83 6.00538 14.83 6.00538C14.83 6.00538 14.83 6.00538 14.83 6.00538C14.83 6.00538 14.83 6.00538 14.83 6.00539C14.83 6.00539 14.83 6.00539 14.83 6.00539C14.83 6.00539 14.83 6.00539 14.83 6.00539C14.83 6.00539 14.83 6.00539 14.83 6.00539C14.83 6.00539 14.83 6.00539 14.83 6.00539H16.83ZM14.8291 7.00448L15.8291 7.00539L15.8309 5.00539L14.8309 5.00448L14.8291 7.00448ZM10.8167 4.27574L11.83 6.00001H11.83L10.8167 4.27574ZM12.1681 4.0288L12.5063 2.05758L12.5063 2.05758L12.1681 4.0288ZM9.94336 5.33632L11.83 6.00001L11.83 6.00001L9.94336 5.33632ZM8.66818 5.94781L8.0045 7.83448H8.0045L8.66818 5.94781ZM8.05669 4.67263L6.17002 4.00895L8.05669 4.67263ZM9.8033 2.55148L8.78993 0.827213L8.78993 0.827213L9.8033 2.55148ZM12.5063 2.05758L12.1681 4.0288L12.5063 2.05758ZM14.8901 3.42401L13.3601 4.71201L13.3601 4.71201L14.8901 3.42401ZM15.83 6.00539L13.83 6.0027L13.83 6.0048L15.83 6.00539ZM13.8847 9.08653L14.9941 10.7506H14.9941L13.8847 9.08653ZM12.7049 9.73079L13.5172 11.5584H13.5172L12.7049 9.73079ZM12.3149 9.89209L13.0269 11.7611H13.0269L12.3149 9.89209ZM12.1987 9.93497L12.8598 11.8226L12.8687 11.8194L12.1987 9.93497ZM12.164 9.94714L12.8104 11.8398C12.8153 11.8381 12.8202 11.8364 12.8251 11.8347L12.164 9.94714ZM12.1529 9.95091L12.7921 11.8461L12.7993 11.8436L12.1529 9.95091ZM12.149 9.95223L12.7852 11.8484L12.7882 11.8474L12.149 9.95223ZM12.1475 9.95274L12.7786 11.8506L12.7837 11.8489L12.1475 9.95274ZM13.7274 8.37202C13.3781 7.32414 12.2455 6.75782 11.1976 7.10711C10.1497 7.45641 9.58337 8.58905 9.93266 9.63693L13.7274 8.37202ZM12.1463 9.95316L12.7787 11.8505C13.8266 11.5012 14.3929 10.3686 14.0436 9.32071L12.1463 9.95316ZM10.8813 9.32071L12.7787 8.68825L10.8813 9.32071ZM11.5128 8.05614L12.1638 9.94725L12.175 9.9433L11.5128 8.05614ZM11.5115 8.05657L10.8697 6.16235C9.82454 6.51647 9.26369 7.65015 9.61637 8.69577C9.96905 9.74139 11.102 10.3038 12.1481 9.95256L11.5115 8.05657ZM11.5287 8.05054L12.191 9.93772L12.1987 9.93497L11.5287 8.05054ZM11.6029 8.02311L10.891 6.15414L10.8909 6.15414L11.6029 8.02311ZM11.8926 7.90317L11.0804 6.07554L11.0804 6.07554L11.8926 7.90317ZM12.7753 7.42243L11.6659 5.75833L11.6659 5.75833L12.7753 7.42243ZM13.83 6.00448L11.83 6.0032V6.00448H13.83ZM13.83 6.00299L11.83 6.00001L11.83 6.00171L13.83 6.00299ZM11.83 6.00001H11.83L12.5063 2.05758C11.5752 1.89789 10.6177 2.07285 9.8033 2.55148L11.83 6.00001ZM11.83 6.00001H11.83L9.8033 2.55148C8.9889 3.03011 8.37017 3.78153 8.05669 4.67263L11.83 6.00001ZM8.0045 7.83448C9.56747 8.3843 11.2802 7.56298 11.83 6.00001L8.05669 4.67263C8.23997 4.15164 8.81088 3.87787 9.33187 4.06114L8.0045 7.83448ZM6.17002 4.00895C5.62021 5.57192 6.44153 7.28467 8.0045 7.83448L9.33187 4.06114C9.85286 4.24442 10.1266 4.81533 9.94336 5.33632L6.17002 4.00895ZM8.78993 0.827213C7.56833 1.54516 6.64023 2.67228 6.17002 4.00895L9.94336 5.33632C10.1001 4.89077 10.4095 4.51506 10.8167 4.27574L8.78993 0.827213ZM12.8444 0.0863714C11.4478 -0.153176 10.0115 0.109265 8.78993 0.827213L10.8167 4.27574C11.2239 4.03643 11.7026 3.94895 12.1681 4.0288L12.8444 0.0863714ZM16.4202 2.136C15.5077 1.052 14.2409 0.325919 12.8444 0.0863713L12.1681 4.0288C12.6337 4.10865 13.0559 4.35067 13.3601 4.71201L16.4202 2.136ZM17.83 6.00808C17.8319 4.59143 17.3325 3.21979 16.4202 2.136L13.3601 4.71201C13.6642 5.07327 13.8307 5.53048 13.83 6.0027L17.83 6.00808ZM14.9941 10.7506C15.9199 10.1334 17.8293 8.60118 17.83 6.00598L13.83 6.0048C13.83 6.2426 13.7499 6.46643 13.5631 6.71451C13.3626 6.98093 13.0749 7.22274 12.7753 7.42243L14.9941 10.7506ZM13.5172 11.5584C13.9017 11.3875 14.4373 11.1219 14.9941 10.7506L12.7753 7.42243C12.4609 7.63202 12.1394 7.79348 11.8926 7.90317L13.5172 11.5584ZM13.0269 11.7611C13.1528 11.7131 13.3207 11.6457 13.5172 11.5584L11.8926 7.90317C11.7706 7.95739 11.6704 7.99743 11.6029 8.02311L13.0269 11.7611ZM12.8687 11.8194C12.9105 11.8046 12.9638 11.7851 13.0269 11.7611L11.6029 8.02311C11.5693 8.03593 11.5441 8.04507 11.5287 8.05054L12.8687 11.8194ZM12.8251 11.8347L12.8598 11.8226L11.5377 8.04739L11.5029 8.05955L12.8251 11.8347ZM12.7993 11.8436L12.8104 11.8398L11.5176 8.05447L11.5065 8.05825L12.7993 11.8436ZM12.7882 11.8474L12.7921 11.846L11.5138 8.05579L11.5099 8.0571L12.7882 11.8474ZM9.93266 9.63693C10.0908 10.1114 10.1707 10.3504 10.2113 10.4713C10.2312 10.5305 10.2431 10.5656 10.2506 10.5873C10.2527 10.5936 10.2602 10.6155 10.2689 10.6392C10.2716 10.6465 10.2766 10.66 10.283 10.6766C10.2877 10.6885 10.3024 10.7262 10.3236 10.7733C10.3341 10.7968 10.355 10.8422 10.3847 10.8976C10.4072 10.9395 10.4737 11.0617 10.5843 11.2003C10.6684 11.3058 10.9778 11.6821 11.5495 11.8612C12.2244 12.0727 12.7886 11.8472 12.7786 11.8506L11.5164 8.05493C11.5064 8.05825 12.0706 7.83274 12.7455 8.04425C13.3172 8.22338 13.6265 8.59972 13.7107 8.70515C13.8213 8.84373 13.8877 8.96585 13.9101 9.00775C13.9398 9.06308 13.9607 9.10834 13.9712 9.13172C13.9923 9.17862 14.0068 9.21596 14.0113 9.22734C14.0175 9.24349 14.0222 9.25626 14.0246 9.26263C14.0319 9.28269 14.0368 9.29719 14.0339 9.28876C14.0312 9.28085 14.0231 9.25685 14.0031 9.19754C13.9641 9.08145 13.8855 8.84628 13.7274 8.37202L9.93266 9.63693ZM14.0436 9.32071L13.7274 8.37202L9.93266 9.63693L10.2489 10.5856L14.0436 9.32071ZM8.98398 9.95316C9.50792 11.525 11.2069 12.3745 12.7787 11.8505L11.5138 8.05579C12.0377 7.88115 12.6041 8.16431 12.7787 8.68825L8.98398 9.95316ZM10.8783 6.15946C9.30838 6.68463 8.46038 8.38236 8.98398 9.95316L12.7787 8.68825C12.9532 9.21186 12.6706 9.77776 12.1473 9.95283L10.8783 6.15946ZM12.1481 9.95256L12.1493 9.95213L10.8762 6.16016L10.8749 6.16059L12.1481 9.95256ZM10.8617 6.16507C10.864 6.16429 10.8673 6.16317 10.8712 6.16183C10.8752 6.16049 10.8806 6.15866 10.8872 6.15651C10.8905 6.15541 10.894 6.15428 10.8976 6.15313C10.9012 6.15194 10.9042 6.151 10.9059 6.15045C10.9063 6.15034 10.9065 6.15025 10.9066 6.15024C10.9067 6.1502 10.9064 6.15029 10.9061 6.15038C10.9056 6.15054 10.9035 6.15121 10.9008 6.15208C10.895 6.15394 10.8838 6.15757 10.8697 6.16235L12.1533 9.9508C12.1392 9.95557 12.128 9.95919 12.1222 9.96104C12.1195 9.9619 12.1174 9.96257 12.1169 9.96272C12.1167 9.96281 12.1164 9.9629 12.1165 9.96285C12.1166 9.96284 12.1169 9.96275 12.1172 9.96264C12.119 9.96208 12.122 9.96112 12.1257 9.95992C12.1294 9.95874 12.1329 9.95759 12.1363 9.95646C12.143 9.95426 12.1487 9.95235 12.153 9.9509C12.1573 9.94945 12.161 9.94819 12.1638 9.94721L10.8617 6.16507ZM10.8664 6.16338L10.8505 6.16898L12.175 9.9433L12.191 9.9377L10.8664 6.16338ZM10.8909 6.15414C10.8721 6.16133 10.8609 6.16533 10.8587 6.16612L12.1987 9.93497C12.2273 9.92482 12.2665 9.91053 12.3149 9.89209L10.8909 6.15414ZM11.0804 6.07554C10.9956 6.11321 10.9292 6.13958 10.891 6.15414L12.3149 9.89209C12.4116 9.85528 12.5457 9.80157 12.7049 9.73079L11.0804 6.07554ZM11.6659 5.75833C11.4729 5.88704 11.2584 5.9964 11.0804 6.07554L12.7049 9.73079C13.0205 9.59052 13.4491 9.37697 13.8847 9.08653L11.6659 5.75833ZM11.83 6.00448C11.83 5.69935 11.9516 5.52996 11.9571 5.52262C11.9606 5.51791 11.9446 5.54006 11.8947 5.58489C11.8453 5.62921 11.7712 5.68811 11.6659 5.75833L13.8847 9.08653C14.7064 8.53876 15.83 7.52779 15.83 6.00448H11.83ZM11.83 6.00171L11.83 6.0032L15.83 6.00576L15.83 6.00427L11.83 6.00171ZM11.83 6.00001L11.83 6.00001L15.83 6.00597C15.8314 5.06133 15.4985 4.14668 14.8901 3.42401L11.83 6.00001ZM11.83 6.00001H11.83L14.8901 3.42401C14.2818 2.70133 13.4373 2.21728 12.5063 2.05758L11.83 6.00001ZM12.7837 11.8489L12.7852 11.8484L11.5129 8.0561L11.5113 8.05662L12.7837 11.8489Z" fill="#F9FAFA" mask="url(#path-3-outside-1_14208_48805)"/>
</svg>
