<svg width="26" height="24" viewBox="0 0 26 24" fill="none" xmlns="http://www.w3.org/2000/svg">
<path d="M23.3821 11.9999H17.1639L15.0912 14.9999H10.9457L8.87297 11.9999H2.65479" stroke="inherit" stroke-width="2" stroke-linecap="round" stroke-linejoin="round"/>
<path d="M6.23024 5.10994L2.65479 11.9999V17.9999C2.65479 18.5304 2.87316 19.0391 3.26187 19.4142C3.65058 19.7892 4.17779 19.9999 4.72751 19.9999H21.3093C21.8591 19.9999 22.3863 19.7892 22.775 19.4142C23.1637 19.0391 23.3821 18.5304 23.3821 17.9999V11.9999L19.8066 5.10994C19.635 4.77673 19.3705 4.49631 19.0428 4.30022C18.715 4.10413 18.3371 4.00014 17.9515 3.99994H8.08533C7.69972 4.00014 7.3218 4.10413 6.99409 4.30022C6.66637 4.49631 6.40184 4.77673 6.23024 5.10994V5.10994Z" stroke="inherit" stroke-width="2" stroke-linecap="round" stroke-linejoin="round"/>
</svg>
