<svg width="24" height="24" viewBox="0 0 24 24" fill="none" xmlns="http://www.w3.org/2000/svg">
<path d="M14.3125 22L6.0625 22C5.51549 22 4.99089 21.7893 4.60409 21.4142C4.2173 21.0391 4 20.5304 4 20L4 4C4 3.46957 4.2173 2.96086 4.60409 2.58579C4.99088 2.21072 5.51549 2 6.0625 2L18.4375 2C18.9845 2 19.5091 2.21072 19.8959 2.58579C20.2827 2.96086 20.5 3.46957 20.5 4L20.5 16L14.3125 22Z" stroke="inherit" stroke-width="2" stroke-linecap="round" stroke-linejoin="round"/>
<path d="M15.5 7H8.5" stroke="inherit" stroke-width="2" stroke-linecap="round" stroke-linejoin="round"/>
<path d="M15.5 11H8.5" stroke="inherit" stroke-width="2" stroke-linecap="round" stroke-linejoin="round"/>
<path d="M10 15H9.25H8.5" stroke="inherit" stroke-width="2" stroke-linecap="round" stroke-linejoin="round"/>
<path d="M14 22L14 16L20.5 16" stroke="inherit" stroke-width="2" stroke-linecap="round" stroke-linejoin="round"/>
</svg>
