<svg width="24" height="24" viewBox="0 0 24 24" fill="none" xmlns="http://www.w3.org/2000/svg">
<path d="M20 11H11C9.89543 11 9 11.6199 9 12.3846V18.6154C9 19.3801 9.89543 20 11 20H20C21.1046 20 22 19.3801 22 18.6154V12.3846C22 11.6199 21.1046 11 20 11Z" stroke="inherit" stroke-width="2" stroke-linecap="round" stroke-linejoin="round"/>
<path d="M5 13H4C3.46957 13 2.96086 12.8541 2.58579 12.5945C2.21071 12.3348 2 11.9826 2 11.6154V5.38462C2 5.01739 2.21071 4.66521 2.58579 4.40554C2.96086 4.14588 3.46957 4 4 4H13C13.5304 4 14.0391 4.14588 14.4142 4.40554C14.7893 4.66521 15 5.01739 15 5.38462V6.07692" stroke="inherit" stroke-width="2" stroke-linecap="round" stroke-linejoin="round"/>
</svg>
