<svg width="24" height="24" viewBox="0 0 24 24" fill="none" xmlns="http://www.w3.org/2000/svg">
<g clip-path="url(#clip0_14028_31915)">
<path d="M-11.2427 17.7573L-2.75739 26.2426" stroke="inherit" stroke-width="4" stroke-linecap="round"/>
<path d="M-11.2427 26.2427L-2.75739 17.7574" stroke="inherit" stroke-width="4" stroke-linecap="round"/>
<path d="M2 17L7 22" stroke="inherit" stroke-width="2" stroke-linecap="round" stroke-linejoin="round"/>
<path d="M7 17L2 22" stroke="inherit" stroke-width="2" stroke-linecap="round" stroke-linejoin="round"/>
<path d="M16 4L18 6L22 2" stroke="inherit" stroke-width="2" stroke-linecap="round" stroke-linejoin="round"/>
<path d="M3.15379 11.6172C3.24313 10.0996 3.71548 8.62926 4.52675 7.34351C5.33803 6.05776 6.46179 4.99847 7.79318 4.26449C9.12456 3.53051 10.6202 3.14576 12.1405 3.14614M12.1405 21.1349C13.6608 21.1353 15.1564 20.7506 16.4878 20.0166C17.8192 19.2826 18.943 18.2233 19.7542 16.9376C20.5655 15.6518 21.0379 14.1815 21.1272 12.6638" stroke="inherit" stroke-width="2" stroke-linecap="round" stroke-linejoin="round"/>
</g>
<defs>
<clipPath id="clip0_14028_31915">
<rect width="24" height="24" fill="white"/>
</clipPath>
</defs>
</svg>
