<svg width="24" height="24" viewBox="0 0 24 24" fill="none" xmlns="http://www.w3.org/2000/svg">
<path d="M9.5 8C10.8807 8 12 6.88071 12 5.5C12 4.11929 10.8807 3 9.5 3C8.11929 3 7 4.11929 7 5.5C7 6.88071 8.11929 8 9.5 8Z" stroke="inherit" stroke-width="2" stroke-linecap="round" stroke-linejoin="round"/>
<path d="M6 17L6 21" stroke="inherit" stroke-width="2" stroke-linecap="round"/>
<path d="M5 10L6 17" stroke="inherit" stroke-width="2" stroke-linecap="round"/>
<path d="M12 17L12 21" stroke="inherit" stroke-width="2" stroke-linecap="round"/>
<path d="M16 14L18 21" stroke="inherit" stroke-width="2" stroke-linecap="round"/>
<path d="M12 17H6" stroke="inherit" stroke-width="2" stroke-linecap="round"/>
<path d="M16 14H10" stroke="inherit" stroke-width="2" stroke-linecap="round"/>
<path d="M10 14L9 8" stroke="inherit" stroke-width="2" stroke-linecap="round"/>
<path d="M13 11H10" stroke="inherit" stroke-width="2" stroke-linecap="round"/>
<path d="M20 21H18" stroke="inherit" stroke-width="2" stroke-linecap="round"/>
</svg>
