<svg viewBox="0 0 24 24">
    <path d="M12,6.5c1.5,0,2.8,0.6,3.7,1.6C16.5,9,17,10.2,17,11.5c0,2.8-2.2,5-5,5s-5-2.2-5-5S9.2,6.5,12,6.5z"></path>
    <line x1="12" y1="1" x2="12" y2="3"></line>
    <line x1="12" y1="23" x2="12" y2="21"></line>
    <line x1="4.2" y1="4.2" x2="5.6" y2="5.6"></line>
    <line x1="19.8" y1="19.8" x2="18.4" y2="18.4"></line>
    <line x1="1" y1="12" x2="3" y2="12"></line>
    <line x1="23" y1="12" x2="21" y2="12"></line>
    <line x1="4.2" y1="19.8" x2="5.6" y2="18.4"></line>
    <line x1="19.8" y1="4.2" x2="18.4" y2="5.6"></line>
</svg>
