<svg viewBox="0 0 24 24">
<path d="M9.5 9V10"/>
<path d="M9.5 18V19"/>
<path d="M11.0833 11H8.95833C8.57156 11 8.20063 11.158 7.92714 11.4393C7.65365 11.7206 7.5 12.1022 7.5 12.5C7.5 12.8978 7.65365 13.2794 7.92714 13.5607C8.20063 13.842 8.57156 14 8.95833 14H10.0417C10.4284 14 10.7994 14.158 11.0729 14.4393C11.3464 14.7206 11.5 15.1022 11.5 15.5C11.5 15.8978 11.3464 16.2794 11.0729 16.5607C10.7994 16.842 10.4284 17 10.0417 17H7.5"/>
<path d="M13.6665 2H5.6665C5.13607 2 4.62736 2.21071 4.25229 2.58579C3.87722 2.96086 3.6665 3.46957 3.6665 4V20C3.6665 20.5304 3.87722 21.0391 4.25229 21.4142C4.62736 21.7893 5.13607 22 5.6665 22H17.6665C18.1969 22 18.7056 21.7893 19.0807 21.4142C19.4558 21.0391 19.6665 20.5304 19.6665 20V8L13.6665 2Z"/>
<path d="M13.6665 2V8H19.6665" stroke="#121616" stroke-width="2" stroke-linecap="round" stroke-linejoin="round"/>
</svg>
